<svg width="512" height="512" xmlns="http://www.w3.org/2000/svg">

 <g>
  <title>background</title>
  <rect fill="none" id="canvas_background" height="402" width="582" y="-1" x="-1"/>
 </g>
 <g>
  <title>Layer 1</title>
  <path transform="rotate(49.074703216552734 264.0537109375,275.8200988769531) " stroke="null" id="svg_1" fill-rule="evenodd" fill="#75BA2F" d="m509.121639,258.1711l-0.211443,-0.156c-2.912095,3.957 -7.57786,6.555 -12.862922,6.555c-8.862549,0 -16.033558,-7.156 -16.033558,-16c0,-3.336 1.025146,-6.438 2.778816,-8.996l-0.172361,-0.117c3.671685,-6.051 5.903356,-13.051 5.903356,-20.637c0,-17.066 -10.749498,-31.555 -25.827055,-37.293c-74.320551,-36.789 -158.002696,-57.715 -246.743429,-57.715c-49.478558,0 -97.367789,6.609 -143.002301,18.695c-1.550245,0.27 -3.006292,0.695 -4.509438,1.141l-8.486763,-30.699c49.673967,-13.672 101.947374,-21.137 155.998502,-21.137c96.263477,0 187.016421,23.328 267.129095,64.445l0.039082,-0.078c22.328734,12.238 37.469423,35.918 37.469423,63.145c0,14.312 -4.235866,27.636 -11.469004,38.847l0,0zm-469.537732,-76.218c0,22.148 17.998671,40.125 40.209157,40.125c3.445211,0 6.748124,-0.562 9.934793,-1.375l0.055115,0.211c40.170075,-11.07 82.46159,-17.105 126.170071,-17.105c84.285408,0 163.349888,22.09 231.891344,60.668l0.06213,-0.098c19.470752,11.324 32.607246,32.332 32.607246,56.434c0,36.094 -29.327382,65.336 -65.473034,65.336c-11.955022,0 -23.11037,-3.234 -32.763573,-8.82l-0.039082,0.055c-50.104868,-28.93 -108.234533,-45.555 -170.286406,-45.555c-43.90389,0 -85.843669,8.383 -124.401369,23.508c-9.252365,3.334 -15.899277,12.1 -15.899277,22.475c0,13.266 10.76453,24.008 24.058354,24.008c3.18667,0 6.24006,-0.656 9.018876,-1.781l11.813726,29.805c-6.372337,2.484 -13.254742,3.977 -20.503914,3.977c-31.190281,-0.001 -56.454157,-25.228 -56.454157,-56.337c0,-23.703 14.710789,-43.906 35.488276,-52.211l11.508086,29.031l-11.532137,-29.086c42.486924,-16.352 88.623487,-25.414 136.903536,-25.414c67.438147,0 130.711577,17.656 185.654571,48.336c5.174831,3.375 11.312677,5.352 17.935539,5.352c18.179048,0 32.904869,-14.703 32.904869,-32.828c0,-12.242 -6.780191,-22.797 -16.730016,-28.438l0.039082,-0.078c-63.804542,-35.82 -137.380535,-56.336 -215.80267,-56.336c-40.757304,0 -80.167789,5.621 -117.637212,15.961l0.016034,0.055c-5.926404,1.574 -12.127382,2.484 -18.538801,2.484c-39.919551,0 -72.276273,-32.289 -72.276273,-72.125c0,-32.953 22.171404,-60.684 52.414703,-69.297l8.494779,30.758c-16.621789,4.93 -28.842366,20.113 -28.842366,38.305l0,0zm0,93.867c8.862549,0 16.033558,7.156 16.033558,16s-7.171009,16 -16.033558,16s-16.033558,-7.156 -16.033558,-16s7.171009,-16 16.033558,-16l0,0zm172.368764,104.008c53.267488,0 103.137865,14.336 146.141872,39.141c5.950454,2.328 10.185318,8.086 10.185318,14.852c0,8.844 -7.187042,16 -16.033558,16c-2.936145,0 -5.613749,-0.828 -7.985714,-2.211l-0.117245,0.195c-38.753109,-22.828 -83.941688,-35.977 -132.190672,-35.977c-33.67949,0 -65.825772,6.438 -95.387644,18.055l-11.797692,-29.75c33.194475,-13.048 69.325096,-20.305 107.185337,-20.305l0,0zm196.403067,48c8.862549,0 16.033558,7.156 16.033558,16c0,8.828 -7.171009,16 -16.033558,16s-16.033558,-7.172 -16.033558,-16c0,-8.844 7.171009,-16 16.033558,-16l0,0z" clip-rule="evenodd"/>
 </g>
</svg>